<?xml version="1.0" encoding="utf-8"?>
<svg version="1.1" id="Warstwa_1" xmlns="http://www.w3.org/2000/svg" xmlns:xlink="http://www.w3.org/1999/xlink" x="0px" y="0px"
	 viewBox="0 0 727 436" style="enable-background:new 0 0 727 436;" xml:space="preserve">
<style type="text/css">
	.st0{fill:none;stroke:#000000;stroke-width:10;stroke-miterlimit:10;}
	.st1{fill:none;}
</style>
<g id="Warstwa_2_1_">
	<path class="st0" d="M199.2,142.2c6.2-67,58.3-122.6,124.7-133.4c26.9-3.6,50.3-1.8,75.4,5.4C429.9,25,455,42.9,474.8,69.9
		c18,26.9,30.5,55.7,28.7,87.1"/>
	<path class="st0" d="M424.5,423.4c-1.4,0-2.8,0.1-4.2,0.1c-58.5,0-105.9-38.9-105.9-87c0-45,41.6-82.1,95-86.5"/>
	<path class="st0" d="M408,253.5c13.7-35.9,47.5-61.3,87.1-61.3c37.6,0,70,23,84.9,56.2"/>
	<path class="st0" d="M576.4,245.5c4-0.8,8.1-1.4,12.3-1.8c64.8-6.7,121.8,30.8,127.2,83.7c3.2,30.6-11.6,59.7-37.1,80"/>
</g>
<g id="Warstwa_3">
	<path class="st0" d="M118.6,423.5C62.8,413.7,8.2,352.3,8.3,280.4c0.2-77,65-148.4,149.9-148.4c14.8,0,28.9,2.2,42.3,6.1"/>
	<path class="st0" d="M504.4,153.9c18.8-9.5,40-14.9,62.5-14.9c77.4,0,140.1,63.6,140.1,142s-62.7,142-140.1,142"/>
	<g>
		<line class="st0" x1="332.5" y1="423.5" x2="118" y2="423.5"/>
	</g>
	<g>
		<line class="st0" x1="568.5" y1="423.5" x2="425" y2="423.5"/>
	</g>
	<path class="st1" d="M863.5,214.5"/>
</g>
</svg>
