<svg xmlns="http://www.w3.org/2000/svg" class="icon" height="48" viewBox="0 96 960 960" width="48"><path d="M448.882 967Q385 967 345.5 931.667 306 896.333 306 828h100q0 25 9 36t33.105 11q25.106 0 35-9.865Q493 855.271 493 828.816q0-27.605-10.075-40.211Q472.85 776 449 776H71v-92h378q63.833 0 99.417 35.875Q584 755.75 584 827.5q0 67.5-35.618 103.5-35.617 36-99.5 36ZM71 471v-92h541q33.867 0 49.433-16.384Q677 346.233 677 308.116 677 270 661.407 253t-50.093-17q-35.5 0-50.907 19.567Q545 275.133 545 303h-92q0-72 44-115t114-43q69 0 113 42t44 121q0 79-44.107 121T612 471H71Zm665 384v-91q32 0 47-18.593t15-53Q798 657 780.433 641.5 762.867 626 731.758 626H71v-91h660q68.786 0 113.393 41.5T889 692.5q0 78.5-42.607 120.5T736 855Z"/></svg>