<svg xmlns="http://www.w3.org/2000/svg" class="icon" height="48" viewBox="0 96 960 960" width="48"><path d="M435 295V114h91v181h-91Zm275 115-65-65 129-128 65 64-129 129Zm51 211v-91h181v91H761Zm-326 416V856h91v181h-91ZM249 411 123 283l64-65 128 129-66 64Zm526 524L645 806l64-64 130 124-64 69ZM19 621v-91h181v91H19Zm169 313-66-65 128-128 33 32.073L317 804 188 934Zm291.647-124Q382 810 314 741.647q-68-68.353-68-166T314.353 410q68.353-68 166-68T646 410.353q68 68.353 68 166T645.647 742q-68.353 68-166 68Zm.353-92q57 0 100-42.5t43-99.5q0-57-43-100t-100-43q-57 0-99.5 43T338 576q0 57 42.5 99.5T480 718Zm0-142Z"/></svg>