<svg xmlns="http://www.w3.org/2000/svg" class="icon" height="48" viewBox="0 96 960 960" width="48"><path d="M253 918q-95.409 0-163.704-67.402Q21 783.197 21 685.505q0-81.435 51-147.47T204 459q22-100 100.222-162.5Q382.445 234 482.604 234 597 234 678.5 316.5 760 399 767 515v24q75 8 123.5 60.91T939 729q0 78.667-55.167 133.833Q828.667 918 750 918H253Zm.419-91H748q40.84 0 70.42-29.92T848 727q0-41.668-29.556-70.939-29.556-29.272-70.361-29.272h-71.35v-93.877q0-86.931-57.633-146.921Q561.468 326 478.283 326q-85.409 0-142.676 63.569-57.267 63.569-57.267 153.666h-27.92q-57.274 0-97.847 40.447Q112 624.128 112 684.308 112 743 153.573 785q41.573 42 99.846 42ZM480 576Z"/></svg>