<svg xmlns="http://www.w3.org/2000/svg" class="icon" height="48" viewBox="0 96 960 960" width="48"><path d="M479.588 945q-155.358 0-261.973-106.85Q111 731.299 111 575.941t106.833-263.149Q324.667 205 480 205q6.707 0 13.854.5Q501 206 514 207q-29 36-44 78.5T455 374q0 96.417 66.083 162.208Q587.167 602 683 602q46.891 0 89.946-13Q816 576 851 549q-1 11.975-.5 17.195.5 5.22.5 8.72 0 155.168-108.277 262.627Q634.446 945 479.588 945Zm.412-91q90 0 160-53t91-126q-19 8-42.167 11.5Q665.667 690 645 689q-109.612-13-186.806-88.486Q381 525.027 367 409q-1-15.333 2-36.667Q372 351 382 322q-79 30-129.5 100.5T202 576q0 117.086 80.457 197.543Q362.914 854 480 854Zm-13-266Z"/></svg>