<svg xmlns="http://www.w3.org/2000/svg" height="48" viewBox="0 96 960 960" width="48"><path d="M480.134 952q-72.6 0-123.367-50.672Q306 850.656 306 778q0-45.077 22.756-85.856 22.755-40.778 63.09-62.067V288.154q0-37.757 25.437-62.955Q442.719 200 479.937 200q37.217 0 62.717 25.199 25.5 25.198 25.5 62.955v341.923q41.335 21.289 63.591 61.9Q654 732.588 654 778q0 72.656-50.632 123.328Q552.735 952 480.134 952Zm-44.519-403.692h88.77V479H480v-34.539h44.385v-80.384H480v-33.039h44.385v-42.884q0-18.864-12.796-31.624-12.796-12.761-31.712-12.761-18.915 0-31.589 12.761-12.673 12.76-12.673 31.624v260.154Z"/></svg>