<svg xmlns="http://www.w3.org/2000/svg" class="icon" height="48" viewBox="0 96 960 960" width="48"><path d="M580.412 805Q601 805 615.5 790.588q14.5-14.411 14.5-35Q630 735 615.382 720.5q-14.617-14.5-35.5-14.5Q559 706 545 720.618q-14 14.617-14 35.5Q531 777 545.412 791q14.412 14 35 14ZM378 799l246-245-42-42-245 246 41 41Zm2.412-194Q401 605 415.5 590.588q14.5-14.411 14.5-35Q430 535 415.382 520.5q-14.617-14.5-35.5-14.5Q359 506 345 520.618q-14 14.617-14 35.5Q331 577 345.412 591q14.412 14 35 14Zm99.581 392Q333.66 997 235.83 896.948 138 796.895 138 647.843q0-104.753 84.5-228.798T480 147q173 148 258 272.108t85 228.716q0 148.847-98.337 249.011Q626.327 997 479.993 997Zm-.249-91Q587 906 659 832.278t72-184.828q0-73.45-64.494-168.95-64.495-95.5-186.5-209.5Q358 383 293.5 478.967 229 574.934 229 648.025q0 110.578 71.744 184.276Q372.488 906 479.744 906ZM480 572Z"/></svg>